<svg width="80" height="80" viewBox="0 0 80 80" fill="none"
  xmlns="http://www.w3.org/2000/svg">
  <path d="M10 29.9987H70" stroke="#FF8753" stroke-width="3" stroke-linecap="round" stroke-linejoin="round"/>
  <path d="M36.6667 19.982L36.65 19.9987L36.6667 20.0154L36.6833 19.9987L36.6667 19.982" stroke="#FF8753" stroke-width="3" stroke-linecap="round" stroke-linejoin="round"/>
  <path d="M28.3332 19.982L28.3165 19.9987L28.3332 20.0154L28.3498 19.9987L28.3332 19.982" stroke="#FF8753" stroke-width="3" stroke-linecap="round" stroke-linejoin="round"/>
  <path d="M20.0002 19.982L19.9835 19.9987L20.0002 20.0154L20.0168 19.9987L20.0002 19.982" stroke="#FF8753" stroke-width="3" stroke-linecap="round" stroke-linejoin="round"/>
  <path d="M36.6667 19.982L36.65 19.9987L36.6667 20.0154L36.6833 19.9987L36.6667 19.982" stroke="#FF8753" stroke-width="3" stroke-linecap="round" stroke-linejoin="round"/>
  <path d="M28.3332 19.982L28.3165 19.9987L28.3332 20.0154L28.3498 19.9987L28.3332 19.982" stroke="#FF8753" stroke-width="3" stroke-linecap="round" stroke-linejoin="round"/>
  <path d="M20.0002 19.982L19.9835 19.9987L20.0002 20.0154L20.0168 19.9987L20.0002 19.982" stroke="#FF8753" stroke-width="3" stroke-linecap="round" stroke-linejoin="round"/>
  <rect x="10" y="10" width="60" height="60" rx="6" stroke="#FF8753" stroke-width="3" stroke-linecap="round" stroke-linejoin="round"/>
  <rect x="23.3335" y="43.332" width="13.3333" height="13.3333" rx="1.14286" stroke="#FF8753" stroke-width="3" stroke-linecap="round" stroke-linejoin="round"/>
  <path d="M46.6665 54.9987H56.6665" stroke="#FF8753" stroke-width="3" stroke-linecap="round" stroke-linejoin="round"/>
  <path d="M56.6665 44.9987H46.6665" stroke="#FF8753" stroke-width="3" stroke-linecap="round" stroke-linejoin="round"/>
</svg>
