<svg width="100" height="100" viewBox="0 0 100 100" fill="none" xmlns="http://www.w3.org/2000/svg">
<g clip-path="url(#clip0_3900_246827)">
<rect width="100" height="100" rx="12" fill="white"/>
<path d="M0 77.5349L100 58V100H0V77.5349Z" fill="#FF8753"/>
<mask id="path-3-inside-1_3900_246827" fill="white">
<rect x="12" y="11" width="76" height="99" rx="4"/>
</mask>
<rect x="12" y="11" width="76" height="99" rx="4" fill="white" stroke="#2B2726" stroke-width="12" mask="url(#path-3-inside-1_3900_246827)"/>
<rect x="30" y="48" width="40" height="2" rx="1" fill="#DBE1FF"/>
<rect x="30" y="52" width="40" height="2" rx="1" fill="#DBE1FF"/>
<rect x="30" y="56" width="40" height="2" rx="1" fill="#DBE1FF"/>
<rect x="30" y="86" width="30" height="2" rx="1" fill="#DBE1FF"/>
<rect x="30" y="60" width="40" height="2" rx="1" fill="#DBE1FF"/>
<rect x="30" y="90" width="22" height="2" rx="1" fill="#DBE1FF"/>
<rect x="30" y="64" width="30" height="2" rx="1" fill="#DBE1FF"/>
<rect x="30" y="71" width="40" height="2" rx="1" fill="#FF8753"/>
<rect x="30" y="75" width="40" height="2" rx="1" fill="#FF8753"/>
<rect x="30" y="79" width="30" height="2" rx="1" fill="#FF8753"/>
<rect x="18" y="17" width="64" height="25" fill="#FF8753"/>
<circle cx="50" cy="26" r="5" fill="white"/>
<rect x="40" y="34" width="20" height="1" rx="0.5" fill="white"/>
<rect x="44" y="36" width="12" height="1" rx="0.5" fill="white"/>
<rect x="21" y="48" width="5" height="2" rx="1" fill="#DBE1FF"/>
<rect x="21" y="52" width="5" height="2" rx="1" fill="#FF8753"/>
<rect x="21" y="56" width="5" height="2" rx="1" fill="#DBE1FF"/>
</g>
<defs>
<clipPath id="clip0_3900_246827">
<rect width="100" height="100" rx="12" fill="white"/>
</clipPath>
</defs>
</svg>
