<svg width="160" height="40" viewBox="0 0 160 40" fill="none"
  xmlns="http://www.w3.org/2000/svg">
  <path d="M14.1664 10.5H8.71777V15.9486H14.1664V10.5Z" fill="#FF8753"/>
  <path d="M3.9956 31.9316H1.81616V34.1111H3.9956V31.9316Z" fill="#FF8753"/>
  <path d="M8.71772 15.9492H3.99561V20.6713H8.71772V15.9492Z" fill="#FF8753"/>
  <path d="M3.63244 21.3984H0.363281V24.6676H3.63244V21.3984Z" fill="#FF8753"/>
  <path d="M9.08093 26.8457H5.81177V30.1149H9.08093V26.8457Z" fill="#FF8753"/>
  <path d="M14.5297 32.293H11.2605V35.5621H14.5297V32.293Z" fill="#FF8753"/>
  <path d="M25.0636 21.3984H19.615V26.847H25.0636V21.3984Z" fill="#FF8753"/>
  <path d="M14.1665 21.3984H9.44434V26.1206H14.1665V21.3984Z" fill="#FF8753"/>
  <path d="M19.6149 26.8457H14.8928V31.5678H19.6149V26.8457Z" fill="#FF8753"/>
  <path d="M25.0636 10.5H19.615V15.9486H25.0636V10.5Z" fill="#FF8753"/>
  <path d="M19.6151 15.9492H14.1665V21.3978H19.6151V15.9492Z" fill="#FF8753"/>
  <path d="M43.054 30.1438C37.2789 30.1438 33.0635 26.1251 33.0635 20.3641C33.0635 14.5889 37.2789 10.5 43.054 10.5C48.8572 10.5 53.0586 14.603 53.0586 20.3641C53.0586 23.5256 51.794 26.1673 49.6862 27.8956L51.7518 30.7621L49.082 32.6169L46.8479 29.5115C45.6957 29.919 44.417 30.1438 43.054 30.1438ZM36.9698 20.35C36.9698 24.0877 39.5412 26.6169 43.0681 26.6169C43.6161 26.6169 44.15 26.5607 44.6418 26.4343L42.7589 23.8207L45.4287 21.9659L47.4942 24.8465C48.5481 23.7504 49.1663 22.1907 49.1663 20.35C49.1663 16.6404 46.6371 14.0409 43.0681 14.0409C39.5271 14.0409 36.9698 16.6404 36.9698 20.35Z" fill="white"/>
  <path d="M56.4451 30.4546V10.5H65.6289C69.2142 10.5 71.8004 12.7188 71.8004 15.9515C71.8004 17.2887 71.0657 19.3458 69.1261 20.0805C71.3449 20.9181 72.4763 22.8136 72.4763 24.9149C72.4763 28.177 69.9636 30.4546 66.2754 30.4546H56.4451ZM64.9529 13.909H60.4125V18.7875H65.0999C66.7309 18.7875 67.7007 17.7589 67.7007 16.3923C67.7007 14.8201 66.5252 13.909 64.9529 13.909ZM65.6289 21.9173H60.4125V27.0602H65.6289C67.2158 27.0602 68.2591 26.0463 68.2591 24.6063C68.2591 22.9606 67.2305 21.9173 65.6289 21.9173Z" fill="white"/>
  <path d="M79.5737 10.5V29.5818H75.7798V10.5H79.5737Z" fill="white"/>
  <path d="M92.8663 30.1438C87.3019 30.1438 82.9741 25.9003 82.9741 20.3219C82.9741 14.7435 87.1895 10.5 92.7679 10.5C96.07 10.5 99.1191 12.0738 101.128 14.9824L98.1356 17.1182C96.6461 14.87 94.707 14.0128 92.7679 14.0128C89.2972 14.0128 86.8664 16.6264 86.8664 20.3219C86.8664 24.0315 89.3956 26.631 92.8663 26.631C96.0419 26.631 97.8264 24.7621 98.262 22.7387H92.4869V19.4648H102.098C102.154 19.9566 102.168 20.5186 102.168 20.9964C102.168 25.9003 98.7117 30.1438 92.8663 30.1438Z" fill="white"/>
  <path d="M106.355 29.5818H102.309L110.009 10.5H114.365L122.079 29.5818H118.032L116.627 25.8441H107.775L106.355 29.5818ZM108.842 22.8231H115.531L112.201 14.4625L108.842 22.8231Z" fill="white"/>
  <path d="M125.24 29.5818V10.5H133.137C138.8 10.5 142.987 14.5889 142.987 20.0409C142.987 25.5209 138.8 29.5818 133.137 29.5818H125.24ZM129.034 13.7599V26.3078H133.025C136.65 26.3078 139.109 23.5818 139.109 20.0409C139.109 16.528 136.65 13.7599 133.025 13.7599H129.034Z" fill="white"/>
  <path d="M144.575 25.6333L147.371 23.6099C148.271 25.4507 149.985 26.7153 152.275 26.7153C154.102 26.7153 155.549 25.83 155.549 24.5935C155.549 23.3289 154.13 22.6544 151.854 21.9378C148.186 20.7856 145.193 19.6615 145.193 15.98C145.193 12.3829 148.72 10.5 151.952 10.5C155.409 10.5 157.798 12.5234 159.006 14.6452L156.083 16.7248C155.254 15.3337 153.877 13.9285 151.854 13.9285C150.378 13.9285 149.072 14.7154 149.072 15.966C149.072 17.4976 150.463 17.7224 152.851 18.5655C156.435 19.8301 159.413 20.7997 159.413 24.5654C159.413 28.3031 155.634 30.1438 152.233 30.1438C148.552 30.1438 145.713 28.2188 144.575 25.6333Z" fill="white"/>
</svg>
