<svg width="24" height="24" viewBox="0 0 24 24" fill="none"
  xmlns="http://www.w3.org/2000/svg">
  <path d="M12.9951 20.9329C12.6634 20.974 12.3294 20.9949 11.9951 20.9949C7.02455 20.9949 2.99512 16.9654 2.99512 11.9949C2.99512 7.02431 7.02455 2.99487 11.9951 2.99487C16.9657 2.99487 20.9951 7.02431 20.9951 11.9949C20.9951 12.3292 20.9743 12.6631 20.9331 12.9949" stroke="#FF8753" stroke-width="1.5" stroke-linecap="round" stroke-linejoin="round"/>
  <path d="M19.995 16.9949L17.495 19.4949L15.995 17.9949" stroke="#FF8753" stroke-width="1.5" stroke-linecap="round" stroke-linejoin="round"/>
  <path d="M13.0402 15.1306C11.8855 16.2838 10.0149 16.2838 8.86018 15.1306V15.1306C7.70692 13.9759 7.70692 12.1053 8.86018 10.9506" stroke="#FF8753" stroke-width="1.5" stroke-linecap="round" stroke-linejoin="round"/>
  <path d="M10.9501 8.85969C12.1048 7.70644 13.9754 7.70644 15.1301 8.85969V8.85969C16.2833 10.0144 16.2833 11.885 15.1301 13.0397" stroke="#FF8753" stroke-width="1.5" stroke-linecap="round" stroke-linejoin="round"/>
  <path d="M10.9951 12.9962L12.996 10.9954" stroke="#FF8753" stroke-width="1.5" stroke-linecap="round" stroke-linejoin="round"/>
</svg>
